<svg xmlns="http://www.w3.org/2000/svg" xmlns:xlink="http://www.w3.org/1999/xlink" version="1.1" id="Layer_1" x="0px" y="0px" width="100px" height="100px" viewBox="0 0 100 100" enable-background="new 0 0 100 100" xml:space="preserve">
<g>
	<path fill="#FFFFFF" d="M42.222,46.926c-0.337-0.163-0.983-0.441-1.658-0.733c-3.373-1.454-10.232-4.412-14.68-7.922   c-0.827,7.132,7.256,16.724,11.891,18.373c0.36-1.029,1.17-2.667,2.02-4.386C40.77,50.287,41.774,48.253,42.222,46.926z"/>
	<path fill="#FFFFFF" d="M46.634,35.177C44.879,33.754,26.837,18.839,20.093,2.03c-1.874,1.894-9.057,9.421-9.057,13.459   c0,4.585,9.899,20.484,32.18,29.354c0.182-0.404,0.387-0.843,0.602-1.307C45.103,40.772,46.848,37.015,46.634,35.177z"/>
	<path fill="#FFFFFF" d="M50.473,69.385c-2.266-4.467-0.823-10.273,4.288-17.261c16.392-19.265,1.548-34.897,1.391-35.046   c-3.113-2.953-6.68-4.45-10.602-4.45c-6.041,0-11.187,3.583-12.451,4.538c0.854,1.396,4.447,6.997,9.991,11.862   c0.331-0.156,0.94-0.442,1.695-0.442c1.396,0,2.641,0.947,3.698,2.817c1.772,3.135-0.79,8.673-4.034,15.685   c-4.103,8.868-9.209,19.904-5.688,28.358c4.164,9.998,14.263,13.562,22.328,13.562c2.092,0,4.119-0.237,5.896-0.686   c-1.556-4.416-6.816-11.774-7.801-13.13C57.608,75.257,52.612,73.601,50.473,69.385z"/>
	<path fill="#FFFFFF" d="M74.063,66.533l8.302,9.434c1.151-2.905,5.306-15.289-2.581-26.025c-0.057-0.091-4.151-6.413-15.55-10.575   c-0.404,1.519-1.831,6.313-4.693,10.478C62.519,50.618,74.624,54.511,74.063,66.533z"/>
	<path fill="#FFFFFF" d="M51.952,62.387c1.89,2.236,18.29,21.923,21.633,35.169c0.505,0.131,1.783,0.414,3.406,0.414   c4.095,0,9.487-1.725,11.973-9.919c-0.577-1.582-10.864-13.386-18.406-22.04c-5.67-6.506-10.613-12.179-12.274-14.376   C57.199,52.586,53.795,55.973,51.952,62.387z"/>
</g>
</svg>